<?xml version="1.0" encoding="iso-8859-1"?>
<!-- Generator: Adobe Illustrator 16.0.0, SVG Export Plug-In . SVG Version: 6.00 Build 0)  -->
<!DOCTYPE svg PUBLIC "-//W3C//DTD SVG 1.1//EN" "http://www.w3.org/Graphics/SVG/1.1/DTD/svg11.dtd">
<svg width="531" height="523" viewBox="0 0 531 523" fill="none" xmlns="http://www.w3.org/2000/svg">
<g clip-path="url(#clip0)" filter="url(#filter0_d)">
<path d="M329.762 70.513L312.056 65.659C309.777 64.899 307.532 65.138 305.349 66.374C303.159 67.611 301.68 69.468 300.92 71.942L194.426 440.53C193.666 443.005 193.904 445.339 195.141 447.525C196.378 449.715 198.231 451.19 200.709 451.95L218.41 456.806C220.694 457.572 222.931 457.332 225.12 456.094C227.31 454.851 228.786 453 229.545 450.53L336.042 81.936C336.801 79.462 336.565 77.128 335.326 74.937C334.088 72.747 332.237 71.272 329.762 70.513Z" fill="url(#paint0_linear)"/>
<path d="M170.167 142.465C170.167 139.991 169.214 137.8 167.311 135.898L153.034 121.622C151.131 119.719 148.941 118.765 146.467 118.765C143.993 118.765 141.802 119.72 139.9 121.622L6.856 254.666C4.95 256.569 4 258.759 4 261.233C4 263.707 4.953 265.897 6.856 267.799L139.899 400.843C141.801 402.749 143.988 403.697 146.466 403.697C148.944 403.697 151.131 402.746 153.033 400.843L167.31 386.575C169.213 384.673 170.166 382.482 170.166 380.005C170.166 377.534 169.213 375.344 167.31 373.442L55.107 261.233L167.311 149.032C169.217 147.13 170.167 144.939 170.167 142.465Z" fill="url(#paint1_linear)"/>
<path d="M523.614 254.663L390.567 121.619C388.665 119.717 386.474 118.762 384.004 118.762C381.526 118.762 379.343 119.717 377.434 121.619L363.163 135.894C361.261 137.797 360.312 139.984 360.312 142.461C360.312 144.938 361.26 147.126 363.163 149.028L475.369 261.232L363.163 373.442C361.261 375.344 360.312 377.535 360.312 380.005C360.312 382.483 361.26 384.673 363.163 386.575L377.434 400.843C379.343 402.749 381.527 403.697 384.004 403.697C386.475 403.697 388.665 402.746 390.567 400.843L523.614 267.8C525.517 265.898 526.468 263.704 526.468 261.23C526.468 258.755 525.517 256.565 523.614 254.663Z" fill="url(#paint2_linear)"/>
</g>
<defs>
<filter id="filter0_d" x="0" y="0" width="530.468" height="530.469" filterUnits="userSpaceOnUse" color-interpolation-filters="sRGB">
<feFlood flood-opacity="0" result="BackgroundImageFix"/>
<feColorMatrix in="SourceAlpha" type="matrix" values="0 0 0 0 0 0 0 0 0 0 0 0 0 0 0 0 0 0 127 0"/>
<feOffset dy="4"/>
<feGaussianBlur stdDeviation="2"/>
<feColorMatrix type="matrix" values="0 0 0 0 0 0 0 0 0 0 0 0 0 0 0 0 0 0 0.25 0"/>
<feBlend mode="normal" in2="BackgroundImageFix" result="effect1_dropShadow"/>
<feBlend mode="normal" in="SourceGraphic" in2="effect1_dropShadow" result="shape"/>
</filter>
<linearGradient id="paint0_linear" x1="265.234" y1="65.2253" x2="265.234" y2="457.244" gradientUnits="userSpaceOnUse">
<stop stop-color="#F2D367"/>
<stop offset="0.9997" stop-color="#26F6EA"/>
</linearGradient>
<linearGradient id="paint1_linear" x1="87.0835" y1="118.765" x2="87.0835" y2="403.697" gradientUnits="userSpaceOnUse">
<stop stop-color="#F2D367"/>
<stop offset="0.9997" stop-color="#26F6EA"/>
</linearGradient>
<linearGradient id="paint2_linear" x1="443.39" y1="118.762" x2="443.39" y2="403.697" gradientUnits="userSpaceOnUse">
<stop stop-color="#F2D367"/>
<stop offset="0.9997" stop-color="#26F6EA"/>
</linearGradient>
<clipPath id="clip0">
<rect width="522.468" height="522.469" fill="white" transform="translate(4)"/>
</clipPath>
</defs>
</svg>


