<svg width="975" height="974" viewBox="0 0 975 974" fill="none" xmlns="http://www.w3.org/2000/svg">
<path d="M8.01587 494.016C4.11063 490.111 4.11065 483.779 8.01589 479.874L480.765 7.12466C484.734 3.15603 491.191 3.22996 495.067 7.28843L946.644 480.038C950.336 483.903 950.336 489.987 946.644 493.852L495.067 966.601C491.191 970.66 484.734 970.734 480.765 966.765L8.01587 494.016Z" fill="#545683" fill-opacity="0.3"/>
<rect x="55" y="486" width="610.233" height="610.233" rx="10" transform="rotate(-45 55 486)" fill="#545683" fill-opacity="0.4"/>
<rect x="104" y="488" width="543.058" height="541.644" rx="10" transform="rotate(-45 104 488)" fill="#545683" fill-opacity="0.4"/>
<rect x="487.305" y="168.651" width="451.942" height="451.942" rx="10" transform="rotate(44.9523 487.305 168.651)" fill="#676893" fill-opacity="0.5"/>
<path d="M255.071 494.898C251.166 490.993 251.166 484.661 255.071 480.756L479.144 256.683C483.05 252.777 489.381 252.777 493.286 256.683L717.929 481.325C721.834 485.23 721.834 491.562 717.929 495.467L493.856 719.54C489.95 723.446 483.619 723.446 479.714 719.54L255.071 494.898Z" fill="#F4F4F4"/>
</svg>
